# xmcd CD database file
#
# Track frame offsets:
#	150
#	13197
#	27922
#	40072
#	52427
#	64597
#	77642
#	90317
#	100370
#	110270
#	124822
#	137415
#	151882
#	165090
#	175892
#	187672
#
# Disc length: 2647 seconds
#
# Revision: 3
# Processed by: cddbd v1.5.2PL0 Copyright (c) Steve Scherf et al.
# Submitted via: CDex 1.51
#
DISCID=bd0a5510
DTITLE=Red Foley - Country Music Hall of Fame Series
DYEAR=1991
DGENRE=Country
TTITLE0=Hang Your Head in Shame
TTITLE1=Old Shep
TTITLE2=Tennessee Saturday Night
TTITLE3=Tennessee Border
TTITLE4=Careless Kisses
TTITLE5=Just a Closer Walk With Thee
TTITLE6=Chattanoogie Shoe Shine Boy
TTITLE7=When God Dips His Love In My Heart
TTITLE8=Don't Be Ashamed Of Your Age
TTITLE9=Peace In The Valley
TTITLE10=Alabama Jubilee
TTITLE11=Midnight
TTITLE12=OneBy One
TTITLE13=Deep Blues
TTITLE14=As Far As I'm Concerned
TTITLE15=Sugarfoot Rag
EXTD=YEAR: 1991
EXTT0=
EXTT1=
EXTT2=
EXTT3=
EXTT4=
EXTT5=
EXTT6=
EXTT7=
EXTT8=
EXTT9=
EXTT10=
EXTT11=
EXTT12=
EXTT13=
EXTT14=
EXTT15=
PLAYORDER=
